<svg xmlns="http://www.w3.org/2000/svg">
  <symbol id="facebook-messenger" viewBox="50 50 400 403">
    <g fill="none" fill-rule="evenodd">
      <path
        d="M250 50.201c-112.676 0-200 82.452-200 193.81 0 58.25 23.903 108.582 62.817 143.356 3.26 2.935 5.231 6.995 5.392 11.377l1.087 35.537c.362 11.337 12.072 18.694 22.455 14.151l39.678-17.487a15.974 15.974 0 0 1 10.664-.804c18.229 5.025 37.666 7.678 57.907 7.678 112.676 0 200-82.452 200-193.809S362.676 50.201 250 50.201z"
        fill="#006aff"
      />
      <path
        d="M129.92 300.693l58.752-93.105c9.336-14.794 29.376-18.493 43.38-8l46.72 35.015a12.022 12.022 0 0 0 14.447-.04l63.099-47.84c8.41-6.391 19.437 3.7 13.762 12.624l-58.712 93.065c-9.336 14.794-29.376 18.493-43.38 8l-46.72-35.015a12.022 12.022 0 0 0-14.447.04l-63.139 47.88c-8.41 6.392-19.437-3.699-13.762-12.624z"
        fill="#fff"
      />
    </g>
  </symbol>

  <symbol id="telegram" viewBox="0 0 500 500">
    <path
      d="M250 500c138.071 0 250-111.929 250-250S388.071 0 250 0 0 111.929 0 250s111.929 250 250 250z"
      fill="#34aadf"
    />
    <path
      d="M104.047 247.832s125-51.3 168.352-69.364c16.619-7.225 72.977-30.347 72.977-30.347s26.012-10.115 23.844 14.451c-.723 10.116-6.503 45.52-12.283 83.815-8.671 54.191-18.064 113.439-18.064 113.439s-1.445 16.619-13.728 19.509-32.515-10.115-36.127-13.006c-2.891-2.167-54.191-34.682-72.977-50.578-5.058-4.335-10.838-13.005.722-23.121 26.012-23.844 57.081-53.468 75.867-72.254 8.671-8.671 17.341-28.902-18.786-4.336-51.3 35.405-101.878 68.642-101.878 68.642s-11.561 7.225-33.237.722c-21.677-6.502-46.966-15.173-46.966-15.173s-17.34-10.838 12.284-22.399z"
      fill="#fff"
    />
  </symbol>

  <symbol id="threads" viewBox="-.1 .2 481.2 555.9">
    <path
      d="m182 3.4c-34.4 7.7-66.1 22.2-90.1 41.1-11.7 9.3-28.9 27.1-38.3 39.8-4.7 6.4-8.6 11.9-8.6 12.2 0 .4-1.3 2.5-2.9 4.8-3.7 5.4-12.8 23.6-17.6 35.2-3.4 8.2-5.4 14.1-11.4 33.7-2.6 8.3-7.6 33.4-9.2 45.3-.6 4.9-1.6 11.9-2.1 15.5s-1.2 22.5-1.5 42.1c-.4 33.8-.3 36.5 2.1 56 1.4 11.2 3.5 25.3 4.6 31.4 2.1 11.3 8.9 37.6 11.7 44.9 15.8 41.8 30.4 65.8 55.3 90.7 18.1 18.2 32.6 28.5 55.5 39.5 15.8 7.7 35.7 14.4 52.6 17.9l12.5 2.6 55-.4c54.8-.4 54.9-.4 64.9-2.9 39.9-10.1 70.1-27.1 98-55.2 16.8-16.9 28.4-34.5 36.3-55 7.2-18.6 9.1-28 9.9-48.6 2.4-60.7-26.2-108.1-81.3-135-4.5-2.2-8.4-4.7-8.7-5.5-.4-.8-.9-4.9-1.2-9.2-1-12.3-4.9-29.9-9.5-42.5-9.9-27.2-29.7-49.9-53-61-15.5-7.3-26.9-10.3-46.2-11.8-18.2-1.5-34.4 0-52.8 4.8-7.3 1.9-21.8 8.9-30.4 14.6-12.7 8.4-31.6 27.9-31.6 32.4 0 .7 32.5 23.6 37.7 26.6.6.3 4.8-3.1 10-8.2 11.1-11 17.5-14.6 34.8-19.3 7.8-2.2 33.2-1.9 42 .4 26.5 7 41.2 23 48 52.4 1.1 4.6 1.1 5.5-.2 6-.8.3-6.4-.1-12.6-.8-14.1-1.8-58-1.8-69.2-.1-33.9 5.3-59.3 17.9-77.2 38.5-23.8 27.3-27 70.8-7.6 102.9 5.3 8.8 17.7 21.9 25.7 27.2 23.4 15.5 51.8 22.3 81.5 19.6 55.3-5.1 91.2-37.7 105.1-95.5 1.2-4.9 2.4-11.1 2.7-13.7.9-7.5 2.2-7.8 10-2 22.4 16.6 34.3 39.3 35.9 68.2 1.9 33.1-14.1 65.6-44.4 90.3-23.1 18.9-45.6 28.5-80.3 34.4-15.2 2.6-63.8 2.6-79.4 0-42.3-7.1-74.5-22.6-99.2-47.8-14.1-14.6-22.6-26.6-32-45.4-8.3-16.5-16.6-42.7-21.2-66.5-4.5-23.7-6.5-50.9-5.8-78.5.9-33.2 3.5-52.5 10.8-82.2 7.1-29.1 20.8-57.8 36.7-77.4 15.3-18.9 31.8-32.1 53.7-42.8 13.7-6.7 18.3-8.5 29.5-11.5 3-.8 8-2.1 11-2.9 8.5-2.3 25-4.6 40.7-5.7 22.6-1.5 53.3 1.1 71.8 6.1 2.2.5 5.6 1.4 7.5 1.8 8.1 1.8 23 7.5 34.4 13.1 26.3 13.1 47.7 32.2 64.1 57.3 5.7 8.8 16.5 29.7 16.5 31.9 0 .8.4 1.8.9 2.3 1.1 1.3 5.5 13.2 7.6 20.7.9 3.2 2 6 2.5 6.3.8.5 17.3-3.6 36-8.8l8.5-2.4.3-3.6c.3-3.6-5.5-22.6-10-32.5-20-44.8-41-72.3-74.8-97.9-21.6-16.3-53.9-30.5-85.5-37.6l-14-3.1-50-.2-50-.2zm112 283.6c15.7 2 22.5 3.3 23.6 4.7 2 2.3-.9 22.4-5 35.4-8.3 25.9-22.4 40.7-45.1 47-11.5 3.2-33.6 3.2-45 0-25.3-7-39.2-24.8-36.3-46.3 1.9-14 10.6-24.7 26-32.2 9.8-4.8 14.1-6 27.8-8.1 10.6-1.6 42.6-1.9 54-.5z"
    />
  </symbol>

  <symbol id="x" viewBox="0.254 0.25 500 451.95400000000006">
    <path
      d="M394.033.25h76.67L303.202 191.693l197.052 260.511h-154.29L225.118 294.205 86.844 452.204H10.127l179.16-204.77L.254.25H158.46l109.234 144.417zm-26.908 406.063h42.483L135.377 43.73h-45.59z"
      fill="#000"
    />
  </symbol>

  <symbol id="chrome-simple" viewBox="0 0 28 28">
    <path
      d="M0 14c0 -2.5484375 0.681953125 -4.9437500000000005 1.8741406250000001 -7.0492187500000005L7.8804687499999995 17.40703125C9.078125 19.55078125 11.36953125 21 14 21c0.7820312500000001 0 1.4820312500000001 -0.12578124999999998 2.2312499999999997 -0.36093749999999997l-4.17265625 7.229687499999999C5.2445312500000005 26.92265625 0 21.07109375 0 14zm19.966406250000002 3.5874999999999995c0.6726562500000001 -1.05 1.0335937499999999 -2.32421875 1.0335937499999999 -3.5874999999999995 0 -2.0890625000000003 -0.9187500000000001 -3.96484375 -2.3679687499999997 -5.25h8.350781249999999c0.65625 1.6187500000000001 1.0171875000000001 3.39609375 1.0171875000000001 5.25 0 7.7328125000000005 -6.2671874999999995 13.95078125 -14 14l5.9664062499999995 -10.4125zM26.1296875 7H14c-3.43984375 0 -6.21796875 2.41171875 -6.86328125 5.61640625L2.963515625 5.385078125C5.5234375 2.1071093750000003 9.515625 0 14 0c5.184375 0 9.70703125 2.8153124999999997 12.129687500000001 7zM9.1875 14c0 -2.6578125 2.1546875 -4.8125 4.8125 -4.8125s4.8125 2.1546875 4.8125 4.8125 -2.1546875 4.8125 -4.8125 4.8125 -4.8125 -2.1546875 -4.8125 -4.8125z"
      fill="currentColor"
      stroke-width="0.0547"
    ></path>
  </symbol>

  <symbol id="firefox-simple" viewBox="0 0 28 28">
    <path
      d="M7.1645382812500005 7.0130867187499994c0.00872265625 0.00054140625 0.0043640625 0.00054140625 0 0Zm19.15155703125 2.47146484375c-0.578221875 -1.3896859375 -1.7482882812499998 -2.888375 -2.66711484375 -3.3641398437500003 0.7477039062499999 1.4654445312500002 1.18096015625 2.9363359375 1.3460890625 4.03282578125 0.0002734375 0.007519531250000001 0.00119765625 0.01498984375 0.00272890625 0.022345312500000002 -1.5030476562500001 -3.7467117187500003 -4.052010156250001 -5.257339062500001 -6.13371171875 -8.54686875 -0.81702578125 -1.2910460937500001 -0.595328125 -1.3749749999999998 -0.71282421875 -1.34390703125l-0.0065406249999999996 0.00381171875c-2.5455828125 1.41437734375 -4.10558203125 4.27103359375 -4.50041484375 6.68904140625 -0.90558671875 0.047578125 -1.793028125 0.27232734375 -2.612071875 0.6614398437500001 -0.07368046874999999 0.03346328125 -0.13373828125 0.091065625 -0.17024765625000002 0.163275 -0.03651484375 0.072209375 -0.04725 0.15471640625 -0.030521093750000002 0.23390390625 0.01057109375 0.04572421875 0.03063046875 0.08871953125000001 0.058860156250000004 0.12621328125 0.028175 0.03749921875 0.06397890625 0.06867109375 0.10496171875 0.091503125 0.0409828125 0.0228375 0.08632421875 0.03678828125 0.13308203125 0.0410375 0.046703125 0.00419453125 0.09384375 -0.00141640625 0.13826093750000001 -0.01651015625l0.028339062499999998 -0.01144609375c0.84470859375 -0.39799921875 1.76555859375 -0.6084640625000001 2.699265625 -0.61691328125 3.4239734375 -0.031007812499999995 5.29482734375 2.39920078125 5.86503203125 3.39465546875 -0.708465625 -0.4986515625 -1.9809890625 -0.9913093749999999 -3.2055460937499998 -0.778225 4.78161796875 2.3902648437500003 3.4987421875 10.60174609375 -3.127621875 10.31095078125 -3.24064453125 -0.1422421875 -5.29008046875 -2.7783437500000003 -5.47864296875 -4.948387500000001 0 0 0.6130960937500001 -2.2861726562499998 4.39359921875 -2.2861726562499998 0.40872890625 0 1.57661328125 -1.1400921875 1.59841171875 -1.4714382812500002 -0.00490546875 -0.1089921875 -2.3180554687500003 -1.02869375 -3.2202625 -1.9172234375000001 -0.48214140625 -0.474840625 -0.7113039062500001 -0.7034015625 -0.9139265625 -0.87523515625 -0.1096484375 -0.093078125 -0.22447578125 -0.17983984375 -0.34388046875 -0.2599515625 -0.30317109375 -1.0603578125 -0.3161921875 -2.18262734375 -0.0376578125 -3.2496953125 -1.3657109374999998 0.62181875 -2.4278679687499998 1.6049578125 -3.19955234375 2.47255859375h-0.0065406249999999996c-0.526990625 -0.66759765625 -0.49048125 -2.86930546875 -0.45941328125 -3.32871875 -0.0065406249999999996 -0.0288859375 -0.39390859375 0.19989921875 -0.44415546875 0.23488281249999998 -0.46681796875 0.3298421875 -0.9017859374999999 0.7025921875000001 -1.2992273437500002 1.1133937500000002 -0.8878187500000001 0.9046625 -2.40508515625 2.73327578125 -3.02461796875 5.51679296875 -0.2471984375 1.1108234375000001 -0.36840234375 2.4208406250000003 -0.36840234375 2.850225 0 7.3408289062500005 5.951684375 13.291425 13.29306015625 13.291425 6.574591406250001 0 12.1540015625 -4.75366171875 13.1028625 -11.04230859375 0.6306453125 -4.17974921875 -0.8016585937499999 -7.14289296875 -0.8016585937499999 -7.19313984375Z"
      fill="currentColor"
      stroke-width="0.0547"
    ></path>
  </symbol>

  <symbol id="safari-simple" viewBox="0 0 28 28">
    <path
      d="m15.022109375 15.022109375 -2.04421875 -2.04421875L9.078125 18.921875ZM14 0.4375C6.5078125 0.4375 0.4375 6.5078125 0.4375 14s6.0703125 13.5625 13.5625 13.5625 13.5625 -6.0703125 13.5625 -13.5625S21.4921875 0.4375 14 0.4375Zm8.523046875 9.558828125 0.80828125 -0.335234375a0.4375 0.4375 0 0 1 0.5714843749999999 0.23734375 0.4375 0.4375 0 0 1 -0.23679687500000002 0.57203125L22.859375 10.804609375a0.4375 0.4375 0 0 1 -0.5714843749999999 -0.23679687500000002 0.4375 0.4375 0 0 1 0.23515624999999998 -0.5714843749999999ZM17.195390625 5.140625l0.3346875 -0.80828125a0.4375 0.4375 0 0 1 0.5714843749999999 -0.23515624999999998 0.4375 0.4375 0 0 1 0.23679687500000002 0.5714843749999999l-0.335234375 0.80828125a0.4375 0.4375 0 0 1 -0.5714843749999999 0.23679687500000002A0.4375 0.4375 0 0 1 17.195390625 5.140625ZM14 3.28125a0.4375 0.4375 0 0 1 0.4375 0.4375v0.875a0.4375 0.4375 0 0 1 -0.4375 0.4375 0.4375 0.4375 0 0 1 -0.4375 -0.4375V3.71875a0.4375 0.4375 0 0 1 0.4375 -0.4375Zm-4.1015625 0.8159375a0.4375 0.4375 0 0 1 0.57203125 0.23679687500000002L10.804609375 5.140625a0.4375 0.4375 0 1 1 -0.80828125 0.3346875l-0.335234375 -0.80828125A0.4375 0.4375 0 0 1 9.8984375 4.0971875Zm-3.47703125 2.323671875a0.4375 0.4375 0 0 1 0.618515625 0L7.65625 7.039375a0.4375 0.4375 0 0 1 0 0.616875 0.4375 0.4375 0 0 1 -0.618515625 0l-0.618515625 -0.618515625a0.4375 0.4375 0 0 1 0.001640625 -0.616875ZM3.28125 14a0.4375 0.4375 0 0 1 0.4375 -0.4375h0.875a0.4375 0.4375 0 0 1 0.4375 0.4375 0.4375 0.4375 0 0 1 -0.4375 0.4375H3.71875a0.4375 0.4375 0 0 1 -0.4375 -0.4375Zm2.195703125 4.003671874999999 -0.80828125 0.335234375A0.4375 0.4375 0 0 1 4.0971875 18.1015625a0.4375 0.4375 0 0 1 0.23679687500000002 -0.57203125L5.140625 17.195390625a0.4375 0.4375 0 0 1 0.5714843749999999 0.23679687500000002 0.4375 0.4375 0 0 1 -0.23515624999999998 0.5714843749999999Zm0.23679687500000002 -7.4375A0.4375 0.4375 0 0 1 5.140625 10.804609375l-0.80828125 -0.3346875a0.4375 0.4375 0 0 1 -0.23515624999999998 -0.5714843749999999 0.4375 0.4375 0 0 1 0.5714843749999999 -0.23679687500000002l0.80828125 0.335234375a0.4375 0.4375 0 0 1 0.23679687500000002 0.5709375ZM10.804609375 22.859375l-0.3346875 0.80828125a0.4375 0.4375 0 0 1 -0.808828125 -0.3346875l0.335234375 -0.80828125a0.4375 0.4375 0 1 1 0.80828125 0.3346875ZM14.4375 24.28125a0.4375 0.4375 0 0 1 -0.4375 0.4375 0.4375 0.4375 0 0 1 -0.4375 -0.4375v-0.875a0.4375 0.4375 0 0 1 0.4375 -0.4375 0.4375 0.4375 0 0 1 0.4375 0.4375Zm3.6640625 -0.3784375a0.4375 0.4375 0 0 1 -0.57203125 -0.23679687500000002L17.195390625 22.859375a0.4375 0.4375 0 0 1 0.23679687500000002 -0.5714843749999999 0.4375 0.4375 0 0 1 0.5714843749999999 0.23679687500000002l0.335234375 0.80828125a0.4375 0.4375 0 0 1 -0.23734375 0.56984375Zm3.47703125 -2.323671875a0.4375 0.4375 0 0 1 -0.618515625 0L20.34375 20.960625a0.4375 0.4375 0 0 1 0 -0.616875 0.4375 0.4375 0 0 1 0.618515625 0l0.618515625 0.618515625a0.4375 0.4375 0 0 1 -0.001640625 0.616875ZM15.654296875 15.654296875 6.03421875 21.965781250000003l6.311484375 -9.620078125 9.620078125 -6.311484375ZM23.9028125 18.1015625a0.4375 0.4375 0 0 1 -0.5714843749999999 0.23679687500000002l-0.80828125 -0.335234375a0.4375 0.4375 0 0 1 -0.23679687500000002 -0.5714843749999999 0.4375 0.4375 0 0 1 0.573125 -0.23625000000000002l0.80828125 0.3346875a0.4375 0.4375 0 0 1 0.23515624999999998 0.5714843749999999Zm0.3784375 -3.6640625h-0.875a0.4375 0.4375 0 0 1 -0.4375 -0.4375 0.4375 0.4375 0 0 1 0.4375 -0.4375h0.875a0.4375 0.4375 0 0 1 0.4375 0.4375 0.4375 0.4375 0 0 1 -0.4375 0.4375Z"
      fill="currentColor"
      stroke-width="0.0547"
    ></path>
  </symbol>
</svg>
