<svg xmlns="http://www.w3.org/2000/svg">
  <symbol id="arrow-back" viewBox="0 -960 960 960">
    <path
      d="M400-240 160-480l240-240 56 58-142 142h486v80H314l142 142-56 58Z"
      fill="currentColor"
    />
  </symbol>

  <symbol id="open-fullscreen" viewBox="0 -960 960 960">
    <path
      d="M120-120v-320h80v184l504-504H520v-80h320v320h-80v-184L256-200h184v80H120Z"
      fill="currentColor"
    />
  </symbol>

  <symbol id="close-fullscreen" viewBox="0 -960 960 960">
    <path
      d="m136-80-56-56 264-264H160v-80h320v320h-80v-184L136-80Zm344-400v-320h80v184l264-264 56 56-264 264h184v80H480Z"
      fill="currentColor"
    />
  </symbol>

  <symbol id="style" viewBox="0 -960 960 960">
    <path
      d="m159-168-34-14q-31-13-41.5-45t3.5-63l72-156v278Zm160 88q-33 0-56.5-23.5T239-160v-240l106 294q3 7 6 13.5t8 12.5h-40Zm206-4q-32 12-62-3t-42-47L243-622q-12-32 2-62.5t46-41.5l302-110q32-12 62 3t42 47l178 488q12 32-2 62.5T827-194L525-84Zm-57.5-487.5Q479-583 479-600t-11.5-28.5Q456-640 439-640t-28.5 11.5Q399-617 399-600t11.5 28.5Q422-560 439-560t28.5-11.5ZM497-160l302-110-178-490-302 110 178 490ZM319-650l302-110-302 110Z"
      fill="currentColor"
    />
  </symbol>

  <symbol id="star" viewBox="0 -960 960 960">
    <path
      d="m233-120 65-281L80-590l288-25 112-265 112 265 288 25-218 189 65 281-247-149-247 149Z"
      fill="currentColor"
    />
  </symbol>

  <symbol id="add" viewBox="0 -960 960 960">
    <path
      d="M440-440H200v-80h240v-240h80v240h240v80H520v240h-80v-240Z"
      fill="currentColor"
    />
  </symbol>

  <symbol id="delete" viewBox="0 -960 960 960">
    <path
      d="M280-120q-33 0-56.5-23.5T200-200v-520h-40v-80h200v-40h240v40h200v80h-40v520q0 33-23.5 56.5T680-120H280Zm400-600H280v520h400v-520ZM360-280h80v-360h-80v360Zm160 0h80v-360h-80v360ZM280-720v520-520Z"
      fill="currentColor"
    />
  </symbol>

  <symbol id="lens-blur" viewBox="0 -960 960 960">
    <path
      d="M106-386q-6-6-6-14t6-14q6-6 14-6t14 6q6 6 6 14t-6 14q-6 6-14 6t-14-6Zm0-160q-6-6-6-14t6-14q6-6 14-6t14 6q6 6 6 14t-6 14q-6 6-14 6t-14-6Zm105.5 334.5Q200-223 200-240t11.5-28.5Q223-280 240-280t28.5 11.5Q280-257 280-240t-11.5 28.5Q257-200 240-200t-28.5-11.5Zm0-160Q200-383 200-400t11.5-28.5Q223-440 240-440t28.5 11.5Q280-417 280-400t-11.5 28.5Q257-360 240-360t-28.5-11.5Zm0-160Q200-543 200-560t11.5-28.5Q223-600 240-600t28.5 11.5Q280-577 280-560t-11.5 28.5Q257-520 240-520t-28.5-11.5Zm0-160Q200-703 200-720t11.5-28.5Q223-760 240-760t28.5 11.5Q280-737 280-720t-11.5 28.5Q257-680 240-680t-28.5-11.5Zm146 334Q340-375 340-400t17.5-42.5Q375-460 400-460t42.5 17.5Q460-425 460-400t-17.5 42.5Q425-340 400-340t-42.5-17.5Zm0-160Q340-535 340-560t17.5-42.5Q375-620 400-620t42.5 17.5Q460-585 460-560t-17.5 42.5Q425-500 400-500t-42.5-17.5Zm14 306Q360-223 360-240t11.5-28.5Q383-280 400-280t28.5 11.5Q440-257 440-240t-11.5 28.5Q417-200 400-200t-28.5-11.5Zm0-480Q360-703 360-720t11.5-28.5Q383-760 400-760t28.5 11.5Q440-737 440-720t-11.5 28.5Q417-680 400-680t-28.5-11.5ZM386-106q-6-6-6-14t6-14q6-6 14-6t14 6q6 6 6 14t-6 14q-6 6-14 6t-14-6Zm0-720q-6-6-6-14t6-14q6-6 14-6t14 6q6 6 6 14t-6 14q-6 6-14 6t-14-6Zm131.5 468.5Q500-375 500-400t17.5-42.5Q535-460 560-460t42.5 17.5Q620-425 620-400t-17.5 42.5Q585-340 560-340t-42.5-17.5Zm0-160Q500-535 500-560t17.5-42.5Q535-620 560-620t42.5 17.5Q620-585 620-560t-17.5 42.5Q585-500 560-500t-42.5-17.5Zm14 306Q520-223 520-240t11.5-28.5Q543-280 560-280t28.5 11.5Q600-257 600-240t-11.5 28.5Q577-200 560-200t-28.5-11.5Zm0-480Q520-703 520-720t11.5-28.5Q543-760 560-760t28.5 11.5Q600-737 600-720t-11.5 28.5Q577-680 560-680t-28.5-11.5ZM546-106q-6-6-6-14t6-14q6-6 14-6t14 6q6 6 6 14t-6 14q-6 6-14 6t-14-6Zm0-720q-6-6-6-14t6-14q6-6 14-6t14 6q6 6 6 14t-6 14q-6 6-14 6t-14-6Zm145.5 614.5Q680-223 680-240t11.5-28.5Q703-280 720-280t28.5 11.5Q760-257 760-240t-11.5 28.5Q737-200 720-200t-28.5-11.5Zm0-160Q680-383 680-400t11.5-28.5Q703-440 720-440t28.5 11.5Q760-417 760-400t-11.5 28.5Q737-360 720-360t-28.5-11.5Zm0-160Q680-543 680-560t11.5-28.5Q703-600 720-600t28.5 11.5Q760-577 760-560t-11.5 28.5Q737-520 720-520t-28.5-11.5Zm0-160Q680-703 680-720t11.5-28.5Q703-760 720-760t28.5 11.5Q760-737 760-720t-11.5 28.5Q737-680 720-680t-28.5-11.5ZM826-386q-6-6-6-14t6-14q6-6 14-6t14 6q6 6 6 14t-6 14q-6 6-14 6t-14-6Zm0-160q-6-6-6-14t6-14q6-6 14-6t14 6q6 6 6 14t-6 14q-6 6-14 6t-14-6Z"
      fill="currentColor"
    />
  </symbol>

  <symbol id="target" viewBox="0 -960 960 960">
    <path
      d="M324-111.5Q251-143 197-197t-85.5-127Q80-397 80-480t31.5-156Q143-709 197-763t127-85.5Q397-880 480-880t156 31.5Q709-817 763-763t85.5 127Q880-563 880-480t-31.5 156Q817-251 763-197t-127 85.5Q563-80 480-80t-156-31.5ZM707-253q93-93 93-227t-93-227q-93-93-227-93t-227 93q-93 93-93 227t93 227q93 93 227 93t227-93Zm-397-57q-70-70-70-170t70-170q70-70 170-70t170 70q70 70 70 170t-70 170q-70 70-170 70t-170-70Zm283-57q47-47 47-113t-47-113q-47-47-113-47t-113 47q-47 47-47 113t47 113q47 47 113 47t113-47Zm-169.5-56.5Q400-447 400-480t23.5-56.5Q447-560 480-560t56.5 23.5Q560-513 560-480t-23.5 56.5Q513-400 480-400t-56.5-23.5Z"
      fill="currentColor"
    />
  </symbol>

  <symbol id="close" viewBox="0 -960 960 960">
    <path
      d="m256-200-56-56 224-224-224-224 56-56 224 224 224-224 56 56-224 224 224 224-56 56-224-224-224 224Z"
      fill="currentColor"
    />
  </symbol>
</svg>
