<svg
  xmlns="http://www.w3.org/2000/svg"
  viewBox="0 0 28 28"
  height="28"
  width="28"
>
  <path
    d="M0 14c0 -2.5484375 0.681953125 -4.9437500000000005 1.8741406250000001 -7.0492187500000005L7.8804687499999995 17.40703125C9.078125 19.55078125 11.36953125 21 14 21c0.7820312500000001 0 1.4820312500000001 -0.12578124999999998 2.2312499999999997 -0.36093749999999997l-4.17265625 7.229687499999999C5.2445312500000005 26.92265625 0 21.07109375 0 14zm19.966406250000002 3.5874999999999995c0.6726562500000001 -1.05 1.0335937499999999 -2.32421875 1.0335937499999999 -3.5874999999999995 0 -2.0890625000000003 -0.9187500000000001 -3.96484375 -2.3679687499999997 -5.25h8.350781249999999c0.65625 1.6187500000000001 1.0171875000000001 3.39609375 1.0171875000000001 5.25 0 7.7328125000000005 -6.2671874999999995 13.95078125 -14 14l5.9664062499999995 -10.4125zM26.1296875 7H14c-3.43984375 0 -6.21796875 2.41171875 -6.86328125 5.61640625L2.963515625 5.385078125C5.5234375 2.1071093750000003 9.515625 0 14 0c5.184375 0 9.70703125 2.8153124999999997 12.129687500000001 7zM9.1875 14c0 -2.6578125 2.1546875 -4.8125 4.8125 -4.8125s4.8125 2.1546875 4.8125 4.8125 -2.1546875 4.8125 -4.8125 4.8125 -4.8125 -2.1546875 -4.8125 -4.8125z"
    fill="currentColor"
    stroke-width="0.0547"
  ></path>
</svg>
