<svg
  xmlns="http://www.w3.org/2000/svg"
  viewBox="0 0 28 28"
  height="28"
  width="28"
>
  <path
    d="M7.1645382812500005 7.0130867187499994c0.00872265625 0.00054140625 0.0043640625 0.00054140625 0 0Zm19.15155703125 2.47146484375c-0.578221875 -1.3896859375 -1.7482882812499998 -2.888375 -2.66711484375 -3.3641398437500003 0.7477039062499999 1.4654445312500002 1.18096015625 2.9363359375 1.3460890625 4.03282578125 0.0002734375 0.007519531250000001 0.00119765625 0.01498984375 0.00272890625 0.022345312500000002 -1.5030476562500001 -3.7467117187500003 -4.052010156250001 -5.257339062500001 -6.13371171875 -8.54686875 -0.81702578125 -1.2910460937500001 -0.595328125 -1.3749749999999998 -0.71282421875 -1.34390703125l-0.0065406249999999996 0.00381171875c-2.5455828125 1.41437734375 -4.10558203125 4.27103359375 -4.50041484375 6.68904140625 -0.90558671875 0.047578125 -1.793028125 0.27232734375 -2.612071875 0.6614398437500001 -0.07368046874999999 0.03346328125 -0.13373828125 0.091065625 -0.17024765625000002 0.163275 -0.03651484375 0.072209375 -0.04725 0.15471640625 -0.030521093750000002 0.23390390625 0.01057109375 0.04572421875 0.03063046875 0.08871953125000001 0.058860156250000004 0.12621328125 0.028175 0.03749921875 0.06397890625 0.06867109375 0.10496171875 0.091503125 0.0409828125 0.0228375 0.08632421875 0.03678828125 0.13308203125 0.0410375 0.046703125 0.00419453125 0.09384375 -0.00141640625 0.13826093750000001 -0.01651015625l0.028339062499999998 -0.01144609375c0.84470859375 -0.39799921875 1.76555859375 -0.6084640625000001 2.699265625 -0.61691328125 3.4239734375 -0.031007812499999995 5.29482734375 2.39920078125 5.86503203125 3.39465546875 -0.708465625 -0.4986515625 -1.9809890625 -0.9913093749999999 -3.2055460937499998 -0.778225 4.78161796875 2.3902648437500003 3.4987421875 10.60174609375 -3.127621875 10.31095078125 -3.24064453125 -0.1422421875 -5.29008046875 -2.7783437500000003 -5.47864296875 -4.948387500000001 0 0 0.6130960937500001 -2.2861726562499998 4.39359921875 -2.2861726562499998 0.40872890625 0 1.57661328125 -1.1400921875 1.59841171875 -1.4714382812500002 -0.00490546875 -0.1089921875 -2.3180554687500003 -1.02869375 -3.2202625 -1.9172234375000001 -0.48214140625 -0.474840625 -0.7113039062500001 -0.7034015625 -0.9139265625 -0.87523515625 -0.1096484375 -0.093078125 -0.22447578125 -0.17983984375 -0.34388046875 -0.2599515625 -0.30317109375 -1.0603578125 -0.3161921875 -2.18262734375 -0.0376578125 -3.2496953125 -1.3657109374999998 0.62181875 -2.4278679687499998 1.6049578125 -3.19955234375 2.47255859375h-0.0065406249999999996c-0.526990625 -0.66759765625 -0.49048125 -2.86930546875 -0.45941328125 -3.32871875 -0.0065406249999999996 -0.0288859375 -0.39390859375 0.19989921875 -0.44415546875 0.23488281249999998 -0.46681796875 0.3298421875 -0.9017859374999999 0.7025921875000001 -1.2992273437500002 1.1133937500000002 -0.8878187500000001 0.9046625 -2.40508515625 2.73327578125 -3.02461796875 5.51679296875 -0.2471984375 1.1108234375000001 -0.36840234375 2.4208406250000003 -0.36840234375 2.850225 0 7.3408289062500005 5.951684375 13.291425 13.29306015625 13.291425 6.574591406250001 0 12.1540015625 -4.75366171875 13.1028625 -11.04230859375 0.6306453125 -4.17974921875 -0.8016585937499999 -7.14289296875 -0.8016585937499999 -7.19313984375Z"
    fill="currentColor"
    stroke-width="0.0547"
  ></path>
</svg>
