<svg
  xmlns="http://www.w3.org/2000/svg"
  viewBox="0 0 28 28"
  height="28"
  width="28"
>
  <path
    d="m15.022109375 15.022109375 -2.04421875 -2.04421875L9.078125 18.921875ZM14 0.4375C6.5078125 0.4375 0.4375 6.5078125 0.4375 14s6.0703125 13.5625 13.5625 13.5625 13.5625 -6.0703125 13.5625 -13.5625S21.4921875 0.4375 14 0.4375Zm8.523046875 9.558828125 0.80828125 -0.335234375a0.4375 0.4375 0 0 1 0.5714843749999999 0.23734375 0.4375 0.4375 0 0 1 -0.23679687500000002 0.57203125L22.859375 10.804609375a0.4375 0.4375 0 0 1 -0.5714843749999999 -0.23679687500000002 0.4375 0.4375 0 0 1 0.23515624999999998 -0.5714843749999999ZM17.195390625 5.140625l0.3346875 -0.80828125a0.4375 0.4375 0 0 1 0.5714843749999999 -0.23515624999999998 0.4375 0.4375 0 0 1 0.23679687500000002 0.5714843749999999l-0.335234375 0.80828125a0.4375 0.4375 0 0 1 -0.5714843749999999 0.23679687500000002A0.4375 0.4375 0 0 1 17.195390625 5.140625ZM14 3.28125a0.4375 0.4375 0 0 1 0.4375 0.4375v0.875a0.4375 0.4375 0 0 1 -0.4375 0.4375 0.4375 0.4375 0 0 1 -0.4375 -0.4375V3.71875a0.4375 0.4375 0 0 1 0.4375 -0.4375Zm-4.1015625 0.8159375a0.4375 0.4375 0 0 1 0.57203125 0.23679687500000002L10.804609375 5.140625a0.4375 0.4375 0 1 1 -0.80828125 0.3346875l-0.335234375 -0.80828125A0.4375 0.4375 0 0 1 9.8984375 4.0971875Zm-3.47703125 2.323671875a0.4375 0.4375 0 0 1 0.618515625 0L7.65625 7.039375a0.4375 0.4375 0 0 1 0 0.616875 0.4375 0.4375 0 0 1 -0.618515625 0l-0.618515625 -0.618515625a0.4375 0.4375 0 0 1 0.001640625 -0.616875ZM3.28125 14a0.4375 0.4375 0 0 1 0.4375 -0.4375h0.875a0.4375 0.4375 0 0 1 0.4375 0.4375 0.4375 0.4375 0 0 1 -0.4375 0.4375H3.71875a0.4375 0.4375 0 0 1 -0.4375 -0.4375Zm2.195703125 4.003671874999999 -0.80828125 0.335234375A0.4375 0.4375 0 0 1 4.0971875 18.1015625a0.4375 0.4375 0 0 1 0.23679687500000002 -0.57203125L5.140625 17.195390625a0.4375 0.4375 0 0 1 0.5714843749999999 0.23679687500000002 0.4375 0.4375 0 0 1 -0.23515624999999998 0.5714843749999999Zm0.23679687500000002 -7.4375A0.4375 0.4375 0 0 1 5.140625 10.804609375l-0.80828125 -0.3346875a0.4375 0.4375 0 0 1 -0.23515624999999998 -0.5714843749999999 0.4375 0.4375 0 0 1 0.5714843749999999 -0.23679687500000002l0.80828125 0.335234375a0.4375 0.4375 0 0 1 0.23679687500000002 0.5709375ZM10.804609375 22.859375l-0.3346875 0.80828125a0.4375 0.4375 0 0 1 -0.808828125 -0.3346875l0.335234375 -0.80828125a0.4375 0.4375 0 1 1 0.80828125 0.3346875ZM14.4375 24.28125a0.4375 0.4375 0 0 1 -0.4375 0.4375 0.4375 0.4375 0 0 1 -0.4375 -0.4375v-0.875a0.4375 0.4375 0 0 1 0.4375 -0.4375 0.4375 0.4375 0 0 1 0.4375 0.4375Zm3.6640625 -0.3784375a0.4375 0.4375 0 0 1 -0.57203125 -0.23679687500000002L17.195390625 22.859375a0.4375 0.4375 0 0 1 0.23679687500000002 -0.5714843749999999 0.4375 0.4375 0 0 1 0.5714843749999999 0.23679687500000002l0.335234375 0.80828125a0.4375 0.4375 0 0 1 -0.23734375 0.56984375Zm3.47703125 -2.323671875a0.4375 0.4375 0 0 1 -0.618515625 0L20.34375 20.960625a0.4375 0.4375 0 0 1 0 -0.616875 0.4375 0.4375 0 0 1 0.618515625 0l0.618515625 0.618515625a0.4375 0.4375 0 0 1 -0.001640625 0.616875ZM15.654296875 15.654296875 6.03421875 21.965781250000003l6.311484375 -9.620078125 9.620078125 -6.311484375ZM23.9028125 18.1015625a0.4375 0.4375 0 0 1 -0.5714843749999999 0.23679687500000002l-0.80828125 -0.335234375a0.4375 0.4375 0 0 1 -0.23679687500000002 -0.5714843749999999 0.4375 0.4375 0 0 1 0.573125 -0.23625000000000002l0.80828125 0.3346875a0.4375 0.4375 0 0 1 0.23515624999999998 0.5714843749999999Zm0.3784375 -3.6640625h-0.875a0.4375 0.4375 0 0 1 -0.4375 -0.4375 0.4375 0.4375 0 0 1 0.4375 -0.4375h0.875a0.4375 0.4375 0 0 1 0.4375 0.4375 0.4375 0.4375 0 0 1 -0.4375 0.4375Z"
    fill="currentColor"
    stroke-width="0.0547"
  ></path>
</svg>
